<?xml version="1.0" encoding="utf-8"?>
<!-- Generator: Adobe Illustrator 15.1.0, SVG Export Plug-In . SVG Version: 6.00 Build 0)  -->
<!DOCTYPE svg PUBLIC "-//W3C//DTD SVG 1.1//EN" "http://www.w3.org/Graphics/SVG/1.1/DTD/svg11.dtd">
<svg version="1.1" id="Layer_1" xmlns="http://www.w3.org/2000/svg" xmlns:xlink="http://www.w3.org/1999/xlink" x="0px" y="0px"
	 width="144px" height="144px" viewBox="0 0 144 144" enable-background="new 0 0 144 144" xml:space="preserve">
<path d="M13.614,41.934c-0.674-1.665-1.288-3.131-1.842-4.4c-1.031-0.237-2.091-0.475-3.182-0.713
	c-1.09-0.237-2.169-0.475-3.24-0.713C3.052,35.513,1.269,34.958,0,34.443v-6.837h28.655l25.742,67.416l-4.28,17.064H39.891
	L13.614,41.934z M19.321,72.074v26.872c0,3.211,1.09,5.371,3.269,6.48c0.913,0.518,1.913,0.91,3.003,1.189
	c1.09,0.277,2.13,0.713,3.121,1.309v4.162H2.319v-4.162c0.832-0.596,1.773-1.041,2.824-1.338c1.05-0.297,2.031-0.684,2.942-1.16
	c2.18-1.109,3.27-3.27,3.27-6.48V50.851L19.321,72.074z M52.732,75.998L64.86,27.606h31.389v4.459
	c-1.069,0.435-2.102,0.762-3.092,0.98c-0.99,0.217-1.882,0.525-2.675,0.921c-1.742,0.872-2.615,2.556-2.615,5.054v61.766
	c0,2.459,0.873,4.123,2.615,4.996c0.793,0.396,1.685,0.705,2.675,0.92c0.99,0.219,2.022,0.547,3.092,0.98v4.402H60.044v-4.402
	c1.071-0.434,2.111-0.762,3.121-0.98c1.012-0.215,1.913-0.523,2.705-0.92c1.784-0.873,2.676-2.537,2.676-4.996V40.388h-0.297
	L56.774,86.461L52.732,75.998z"/>
<path d="M101.508,64.466c11.096,0,16.645-5.232,16.645-15.696c0-7.491-2.834-12.285-8.502-14.388
	c-1.942-0.711-3.604-1.068-4.992-1.068h-2.496c-0.238,0-0.457,0.02-0.654,0.059v-5.766h10.226c9.433,0,16.398,1.754,20.896,5.261
	c4.499,3.507,6.749,8.492,6.749,14.952c0,5.508-2.062,9.928-6.184,13.258c-3.646,2.933-8.561,4.794-14.744,5.589v0.237
	c7.41,0.237,13.436,2.1,18.074,5.589c5.111,3.885,7.669,9.215,7.669,15.992c0,6.896-2.656,12.443-7.968,16.646
	c-5.826,4.635-14.149,6.955-24.969,6.955h-9.749v-6.543c0.674,0.162,1.704,0.24,3.091,0.24c11.812,0,17.716-5.768,17.716-17.299
	c0-11.535-6.938-17.301-20.807-17.301V64.466z"/>
</svg>
